<svg xmlns="http://www.w3.org/2000/svg" viewBox="0 0 736 1185" width="736" height="1185">
  <g fill="#000000" fill-rule="evenodd" stroke="none">
    <path d="M 365 0 L 345 6 L 330 14 L 314 25 L 290 46 L 259 80 L 239 70 L 223 64 L 213 62 L 202 62 L 188 65 L 169 73 L 156 83 L 151 90 L 148 98 L 148 100 L 156 101 L 167 108 L 190 131 L 213 161 L 232 192 L 246 220 L 261 258 L 262 263 L 266 271 L 270 285 L 275 296 L 277 305 L 279 308 L 287 334 L 292 346 L 292 349 L 301 376 L 304 391 L 300 394 L 288 394 L 274 391 L 260 386 L 212 364 L 167 338 L 149 326 L 120 303 L 94 276 L 85 263 L 80 253 L 79 248 L 76 248 L 67 253 L 56 265 L 49 280 L 45 301 L 46 313 L 52 331 L 62 348 L 72 358 L 60 365 L 42 380 L 20 404 L 11 417 L 4 430 L 0 444 L 0 454 L 2 464 L 6 475 L 12 486 L 22 500 L 44 522 L 53 529 L 71 540 L 71 542 L 62 558 L 57 573 L 55 583 L 55 605 L 59 621 L 66 636 L 70 642 L 79 651 L 83 653 L 85 653 L 87 651 L 91 639 L 96 631 L 113 613 L 144 590 L 179 568 L 207 554 L 227 546 L 249 539 L 284 532 L 303 531 L 312 533 L 311 631 L 310 632 L 309 668 L 308 669 L 308 681 L 307 682 L 305 709 L 294 764 L 293 775 L 277 841 L 256 905 L 241 941 L 223 978 L 208 1005 L 186 1039 L 163 1067 L 151 1078 L 151 1080 L 164 1092 L 175 1098 L 190 1103 L 203 1104 L 204 1105 L 229 1105 L 239 1103 L 247 1100 L 269 1088 L 273 1092 L 280 1105 L 302 1136 L 311 1147 L 331 1167 L 346 1178 L 353 1181 L 365 1184 L 374 1184 L 373 1183 L 385 1178 L 396 1170 L 420 1146 L 434 1129 L 459 1094 L 464 1089 L 466 1089 L 476 1095 L 494 1103 L 504 1105 L 513 1105 L 514 1106 L 532 1105 L 539 1103 L 545 1103 L 560 1098 L 574 1090 L 584 1080 L 584 1078 L 564 1058 L 544 1032 L 527 1005 L 512 978 L 487 925 L 472 886 L 461 851 L 444 784 L 430 709 L 429 691 L 427 681 L 427 669 L 426 668 L 425 632 L 424 631 L 423 533 L 432 531 L 449 532 L 483 539 L 522 553 L 542 563 L 544 563 L 550 567 L 552 567 L 592 590 L 615 607 L 635 628 L 646 645 L 648 651 L 650 653 L 655 653 L 663 649 L 672 640 L 676 634 L 681 622 L 684 606 L 683 589 L 680 576 L 676 564 L 665 544 L 664 540 L 670 537 L 691 522 L 705 509 L 717 495 L 726 481 L 731 470 L 735 454 L 735 444 L 731 430 L 726 420 L 710 398 L 685 373 L 675 365 L 663 358 L 667 355 L 675 345 L 683 331 L 689 313 L 690 301 L 686 280 L 679 265 L 668 253 L 659 248 L 656 248 L 650 263 L 637 281 L 614 304 L 586 326 L 568 338 L 523 364 L 475 386 L 464 390 L 447 394 L 435 394 L 431 391 L 436 369 L 459 299 L 461 296 L 463 288 L 466 282 L 466 279 L 481 242 L 482 237 L 487 227 L 489 220 L 496 207 L 496 205 L 518 167 L 545 131 L 568 108 L 579 101 L 587 100 L 587 98 L 581 85 L 570 75 L 554 67 L 539 63 L 525 63 L 517 65 L 477 80 L 468 72 L 462 64 L 445 46 L 417 22 L 390 6 L 375 1 Z M 350 545 L 356 545 L 362 547 L 362 943 L 361 944 L 361 1161 L 360 1162 L 348 1158 L 336 1152 L 329 1147 L 316 1134 L 296 1107 L 282 1081 L 282 1076 L 288 1065 L 290 1057 L 292 1054 L 318 968 L 318 964 L 321 955 L 328 920 L 330 900 L 332 893 L 332 886 L 334 879 L 334 872 L 335 871 L 335 864 L 336 863 L 336 856 L 337 855 L 337 848 L 339 839 L 339 831 L 340 830 L 341 811 L 342 810 L 344 768 L 345 767 L 346 722 L 347 721 L 347 686 L 348 685 L 349 546 Z M 381 543 L 383 545 L 383 684 L 384 685 L 385 759 L 386 760 L 387 789 L 388 790 L 388 801 L 390 811 L 391 829 L 393 838 L 393 848 L 394 849 L 395 863 L 396 864 L 398 883 L 400 890 L 400 896 L 403 909 L 406 936 L 408 942 L 411 965 L 419 1005 L 432 1044 L 447 1075 L 452 1082 L 452 1085 L 446 1095 L 434 1110 L 407 1138 L 394 1149 L 380 1158 L 374 1160 L 373 1159 L 373 1093 L 372 1092 L 371 822 L 370 821 L 370 701 L 369 700 L 369 550 L 368 549 L 370 544 Z M 321 535 L 329 539 L 339 540 L 341 544 L 340 655 L 339 656 L 339 683 L 338 684 L 336 747 L 335 748 L 334 778 L 333 779 L 333 791 L 332 792 L 329 837 L 328 838 L 327 852 L 325 859 L 324 877 L 323 878 L 321 899 L 318 912 L 318 919 L 312 949 L 306 970 L 306 975 L 297 1004 L 293 1013 L 293 1016 L 287 1031 L 285 1033 L 285 1035 L 274 1055 L 260 1072 L 247 1082 L 229 1090 L 216 1091 L 215 1092 L 200 1092 L 199 1091 L 188 1090 L 172 1084 L 170 1082 L 170 1079 L 190 1059 L 198 1049 L 215 1022 L 230 992 L 232 990 L 232 988 L 251 949 L 260 925 L 265 915 L 282 867 L 282 864 L 290 839 L 290 835 L 292 831 L 293 822 L 295 817 L 295 813 L 298 804 L 298 800 L 305 771 L 306 759 L 308 753 L 308 748 L 313 723 L 315 698 L 316 697 L 317 673 L 318 672 L 317 671 L 318 669 L 318 649 L 319 648 L 320 536 Z M 411 534 L 413 539 L 414 619 L 415 620 L 417 683 L 418 684 L 419 706 L 420 707 L 422 729 L 427 752 L 427 757 L 429 762 L 429 768 L 432 783 L 440 813 L 440 817 L 442 821 L 444 834 L 457 876 L 457 879 L 459 882 L 474 927 L 477 932 L 479 940 L 488 961 L 508 1002 L 516 1014 L 519 1021 L 537 1046 L 554 1066 L 560 1076 L 560 1080 L 556 1084 L 548 1088 L 538 1091 L 512 1092 L 511 1091 L 499 1090 L 481 1082 L 466 1070 L 453 1053 L 442 1031 L 431 999 L 430 991 L 423 966 L 421 952 L 419 947 L 419 941 L 417 935 L 417 928 L 416 927 L 413 902 L 411 895 L 411 888 L 410 887 L 408 866 L 407 865 L 403 830 L 402 829 L 402 822 L 401 821 L 399 793 L 398 792 L 398 781 L 397 780 L 397 768 L 396 767 L 394 715 L 393 714 L 392 540 L 393 539 L 403 538 Z M 307 521 L 306 522 L 284 523 L 258 528 L 253 530 L 248 530 L 230 536 L 227 536 L 202 545 L 158 566 L 136 579 L 104 604 L 80 629 L 74 627 L 69 621 L 66 610 L 66 590 L 69 574 L 75 560 L 80 552 L 95 537 L 123 520 L 156 509 L 194 501 L 210 500 L 211 499 L 223 499 L 224 498 L 237 498 L 238 497 L 252 497 L 253 496 L 288 495 L 290 497 L 290 499 L 295 508 Z M 426 520 L 438 507 L 445 494 L 484 496 L 485 497 L 497 497 L 498 498 L 509 498 L 510 499 L 521 499 L 522 500 L 537 501 L 548 504 L 569 507 L 615 520 L 628 526 L 645 537 L 657 548 L 666 560 L 672 572 L 676 588 L 676 609 L 671 625 L 663 635 L 656 639 L 653 639 L 649 635 L 645 627 L 637 616 L 614 593 L 590 576 L 564 561 L 535 547 L 496 533 L 467 526 L 458 525 L 453 523 L 447 523 L 439 521 L 427 521 Z M 725 455 L 724 463 L 715 481 L 702 499 L 694 507 L 681 517 L 656 529 L 653 529 L 632 518 L 607 508 L 568 497 L 547 493 L 541 493 L 540 492 L 539 493 L 530 491 L 490 489 L 489 488 L 477 488 L 476 487 L 451 486 L 450 485 L 454 467 L 462 465 L 479 465 L 480 464 L 529 462 L 530 461 L 562 460 L 563 459 L 579 459 L 580 458 L 595 458 L 596 457 L 613 457 L 614 456 L 629 456 L 630 455 L 669 454 L 670 453 L 700 452 L 709 450 L 719 450 Z M 12 454 L 16 450 L 23 449 L 32 451 L 71 453 L 72 454 L 108 455 L 109 456 L 122 456 L 123 457 L 139 457 L 140 458 L 154 458 L 155 459 L 170 459 L 171 460 L 186 460 L 187 461 L 200 461 L 201 462 L 277 466 L 280 468 L 280 474 L 284 485 L 276 487 L 200 491 L 199 492 L 190 492 L 189 493 L 162 497 L 123 508 L 100 517 L 79 528 L 72 525 L 51 512 L 29 491 L 22 481 L 14 466 L 12 460 Z M 358 375 L 377 375 L 391 378 L 409 386 L 419 393 L 429 403 L 437 414 L 444 429 L 448 448 L 447 467 L 443 482 L 435 497 L 429 505 L 420 514 L 407 523 L 390 530 L 375 533 L 360 533 L 344 530 L 326 522 L 316 515 L 304 503 L 296 491 L 290 477 L 287 463 L 287 445 L 289 435 L 293 423 L 303 406 L 317 392 L 329 384 L 340 379 Z M 14 436 L 22 422 L 35 406 L 60 381 L 77 368 L 80 368 L 91 378 L 112 391 L 134 402 L 163 414 L 211 428 L 231 431 L 242 434 L 265 437 L 266 438 L 278 439 L 279 440 L 278 441 L 278 455 L 277 456 L 264 456 L 263 455 L 243 455 L 242 454 L 228 454 L 227 453 L 195 452 L 194 451 L 150 449 L 149 448 L 120 447 L 119 446 L 104 446 L 103 445 L 88 445 L 87 444 L 73 444 L 72 443 L 57 443 L 56 442 L 31 442 L 30 441 L 17 440 Z M 724 437 L 724 440 L 722 442 L 717 442 L 716 443 L 659 445 L 658 446 L 583 449 L 582 450 L 508 453 L 507 454 L 487 454 L 486 455 L 463 455 L 462 456 L 456 456 L 455 455 L 456 451 L 456 442 L 455 440 L 457 438 L 464 438 L 465 437 L 478 436 L 508 430 L 514 430 L 567 416 L 590 407 L 617 394 L 644 377 L 655 367 L 657 367 L 664 371 L 676 381 L 704 409 L 717 425 Z M 673 272 L 678 282 L 681 294 L 681 309 L 677 324 L 670 337 L 657 354 L 643 367 L 631 376 L 618 384 L 594 396 L 577 403 L 540 415 L 510 421 L 505 423 L 495 424 L 489 426 L 483 426 L 482 427 L 476 427 L 475 428 L 457 429 L 455 427 L 455 424 L 448 408 L 448 406 L 450 404 L 465 399 L 508 381 L 550 360 L 583 339 L 618 312 L 638 293 L 660 265 L 662 264 L 667 265 Z M 67 264 L 71 260 L 74 260 L 82 278 L 96 296 L 120 318 L 156 344 L 195 367 L 199 368 L 206 373 L 238 389 L 271 402 L 287 406 L 289 408 L 283 419 L 279 430 L 277 432 L 269 432 L 261 430 L 247 429 L 223 423 L 219 423 L 215 421 L 190 415 L 147 399 L 121 386 L 98 371 L 85 360 L 72 346 L 63 333 L 55 314 L 54 309 L 55 286 L 59 276 Z M 551 75 L 559 79 L 567 85 L 574 93 L 563 99 L 551 109 L 533 130 L 514 158 L 495 192 L 480 223 L 458 275 L 452 294 L 446 308 L 442 323 L 440 326 L 440 329 L 431 355 L 426 377 L 423 382 L 415 376 L 400 371 L 398 369 L 398 363 L 400 357 L 400 352 L 405 327 L 408 302 L 418 253 L 417 252 L 432 195 L 445 156 L 459 123 L 461 121 L 461 119 L 471 102 L 479 92 L 489 84 L 505 76 L 524 71 L 537 71 Z M 190 73 L 198 71 L 215 71 L 234 77 L 252 87 L 261 96 L 270 109 L 277 122 L 290 153 L 304 196 L 318 251 L 318 257 L 324 286 L 324 292 L 329 316 L 330 331 L 331 332 L 335 362 L 337 369 L 335 372 L 322 376 L 311 383 L 309 381 L 301 348 L 292 322 L 290 312 L 281 289 L 281 286 L 263 240 L 244 200 L 244 198 L 221 156 L 200 125 L 181 104 L 163 92 L 168 86 L 176 80 Z M 362 14 L 363 15 L 363 44 L 364 45 L 366 360 L 367 361 L 366 362 L 367 363 L 365 365 L 354 365 L 345 369 L 343 362 L 343 349 L 342 348 L 340 325 L 330 275 L 330 270 L 321 233 L 321 229 L 319 225 L 317 212 L 310 185 L 308 181 L 307 174 L 300 152 L 293 135 L 268 87 L 283 68 L 303 48 L 314 39 L 337 24 L 347 19 Z M 376 13 L 386 16 L 401 23 L 426 40 L 453 66 L 469 87 L 446 129 L 446 131 L 438 147 L 423 195 L 417 218 L 416 227 L 407 260 L 403 285 L 398 305 L 398 310 L 393 335 L 393 342 L 392 343 L 393 344 L 391 354 L 391 365 L 389 368 L 372 364 L 373 184 L 374 183 L 374 22 Z"/>
  </g>
</svg>
