<svg xmlns="http://www.w3.org/2000/svg" width="359" height="359" viewBox="120 120 359 359" shape-rendering="geometricPrecision">
  <path d="M 296.00 120.00 L 292.00 121.00 L 290.00 122.00 L 288.00 123.00 L 284.00 126.00 L 278.00 131.00 L 276.00 133.00 L 269.00 141.00 L 265.00 146.00 L 262.00 151.00 L 259.00 154.00 L 257.00 153.00 L 247.00 147.00 L 244.00 146.00 L 240.00 145.00 L 223.00 145.00 L 219.00 146.00 L 216.00 147.00 L 208.00 151.00 L 205.00 154.00 L 204.00 156.00 L 204.00 163.00 L 206.00 165.00 L 206.00 166.00 L 207.00 167.00 L 209.00 168.00 L 220.00 173.00 L 224.00 176.00 L 236.00 188.00 L 239.00 192.00 L 241.00 195.00 L 243.00 198.00 L 246.00 203.00 L 250.00 211.00 L 253.00 218.00 L 255.00 223.00 L 257.00 229.00 L 260.00 238.00 L 264.00 254.00 L 265.00 259.00 L 263.00 265.00 L 258.00 264.00 L 253.00 263.00 L 248.00 262.00 L 237.00 259.00 L 231.00 257.00 L 222.00 254.00 L 217.00 252.00 L 208.00 248.00 L 206.00 247.00 L 199.00 243.00 L 194.00 240.00 L 190.00 237.00 L 186.00 234.00 L 176.00 224.00 L 173.00 220.00 L 170.00 215.00 L 169.00 213.00 L 167.00 206.00 L 166.00 204.00 L 165.00 203.00 L 163.00 202.00 L 161.00 201.00 L 156.00 201.00 L 154.00 203.00 L 153.00 203.00 L 152.00 204.00 L 149.00 209.00 L 147.00 214.00 L 146.00 217.00 L 145.00 220.00 L 144.00 224.00 L 144.00 238.00 L 145.00 242.00 L 146.00 245.00 L 147.00 248.00 L 148.00 250.00 L 149.00 252.00 L 153.00 257.00 L 152.00 260.00 L 148.00 263.00 L 143.00 266.00 L 138.00 270.00 L 126.00 282.00 L 124.00 285.00 L 122.00 288.00 L 121.00 290.00 L 120.00 293.00 L 120.00 302.00 L 121.00 305.00 L 122.00 307.00 L 123.00 309.00 L 125.00 312.00 L 127.00 315.00 L 130.00 319.00 L 142.00 331.00 L 147.00 335.00 L 151.00 337.00 L 153.00 339.00 L 153.00 341.00 L 151.00 345.00 L 147.00 352.00 L 146.00 355.00 L 145.00 358.00 L 144.00 362.00 L 143.00 368.00 L 143.00 376.00 L 144.00 381.00 L 145.00 384.00 L 148.00 390.00 L 150.00 393.00 L 154.00 397.00 L 156.00 398.00 L 162.00 398.00 L 164.00 397.00 L 167.00 394.00 L 168.00 391.00 L 168.00 388.00 L 171.00 382.00 L 173.00 379.00 L 176.00 375.00 L 184.00 367.00 L 189.00 363.00 L 201.00 355.00 L 210.00 350.00 L 212.00 349.00 L 214.00 348.00 L 225.00 343.00 L 230.00 341.00 L 238.00 338.00 L 249.00 334.00 L 259.00 331.00 L 263.00 332.00 L 263.00 333.00 L 265.00 335.00 L 266.00 335.00 L 267.00 340.00 L 264.00 347.00 L 260.00 361.00 L 254.00 376.00 L 245.00 394.00 L 239.00 404.00 L 236.00 408.00 L 233.00 412.00 L 221.00 424.00 L 217.00 427.00 L 211.00 430.00 L 206.00 431.00 L 204.00 432.00 L 202.00 434.00 L 201.00 436.00 L 201.00 443.00 L 202.00 445.00 L 206.00 449.00 L 209.00 451.00 L 211.00 452.00 L 213.00 453.00 L 216.00 454.00 L 220.00 455.00 L 233.00 455.00 L 238.00 454.00 L 247.00 451.00 L 260.00 446.00 L 266.00 455.00 L 281.00 470.00 L 290.00 476.00 L 292.00 477.00 L 295.00 478.00 L 298.00 479.00 L 304.00 479.00 L 307.00 478.00 L 309.00 477.00 L 311.00 476.00 L 314.00 474.00 L 320.00 469.00 L 325.00 464.00 L 325.00 463.00 L 331.00 457.00 L 337.00 448.00 L 340.00 445.00 L 342.00 446.00 L 347.00 450.00 L 349.00 451.00 L 354.00 453.00 L 358.00 454.00 L 376.00 454.00 L 380.00 453.00 L 383.00 452.00 L 393.00 447.00 L 395.00 445.00 L 396.00 443.00 L 396.00 436.00 L 394.00 434.00 L 394.00 433.00 L 393.00 432.00 L 391.00 431.00 L 389.00 431.00 L 385.00 429.00 L 379.00 426.00 L 375.00 423.00 L 363.00 411.00 L 360.00 407.00 L 358.00 404.00 L 356.00 401.00 L 352.00 394.00 L 351.00 392.00 L 350.00 390.00 L 346.00 381.00 L 344.00 376.00 L 342.00 370.00 L 339.00 361.00 L 335.00 345.00 L 334.00 340.00 L 333.00 335.00 L 337.00 331.00 L 340.00 331.00 L 346.00 333.00 L 364.00 339.00 L 369.00 341.00 L 374.00 343.00 L 383.00 347.00 L 389.00 350.00 L 398.00 355.00 L 403.00 358.00 L 410.00 363.00 L 415.00 367.00 L 423.00 375.00 L 426.00 379.00 L 428.00 382.00 L 431.00 388.00 L 431.00 391.00 L 432.00 394.00 L 433.00 396.00 L 434.00 397.00 L 436.00 398.00 L 438.00 399.00 L 441.00 399.00 L 443.00 398.00 L 445.00 397.00 L 449.00 393.00 L 451.00 390.00 L 454.00 384.00 L 455.00 381.00 L 456.00 376.00 L 456.00 368.00 L 455.00 362.00 L 454.00 358.00 L 453.00 355.00 L 452.00 352.00 L 446.00 341.00 L 446.00 339.00 L 448.00 337.00 L 452.00 335.00 L 457.00 331.00 L 469.00 319.00 L 472.00 315.00 L 474.00 312.00 L 476.00 309.00 L 477.00 307.00 L 478.00 305.00 L 479.00 302.00 L 479.00 293.00 L 478.00 290.00 L 477.00 288.00 L 475.00 285.00 L 473.00 282.00 L 461.00 270.00 L 456.00 266.00 L 451.00 263.00 L 447.00 260.00 L 446.00 257.00 L 450.00 252.00 L 453.00 246.00 L 454.00 243.00 L 455.00 239.00 L 455.00 224.00 L 454.00 220.00 L 453.00 216.00 L 451.00 212.00 L 447.00 204.00 L 444.00 201.00 L 441.00 200.00 L 439.00 200.00 L 436.00 201.00 L 432.00 205.00 L 432.00 208.00 L 430.00 213.00 L 429.00 215.00 L 426.00 220.00 L 423.00 224.00 L 413.00 234.00 L 409.00 237.00 L 405.00 240.00 L 400.00 243.00 L 393.00 247.00 L 391.00 248.00 L 382.00 252.00 L 377.00 254.00 L 371.00 256.00 L 362.00 259.00 L 351.00 262.00 L 346.00 263.00 L 341.00 264.00 L 335.00 265.00 L 332.00 262.00 L 332.00 259.00 L 336.00 249.00 L 339.00 238.00 L 341.00 233.00 L 343.00 228.00 L 346.00 221.00 L 355.00 203.00 L 358.00 198.00 L 360.00 195.00 L 363.00 191.00 L 366.00 187.00 L 379.00 174.00 L 382.00 172.00 L 388.00 169.00 L 393.00 168.00 L 397.00 164.00 L 398.00 161.00 L 398.00 157.00 L 397.00 154.00 L 393.00 150.00 L 390.00 148.00 L 388.00 147.00 L 386.00 146.00 L 383.00 145.00 L 379.00 144.00 L 366.00 144.00 L 361.00 145.00 L 352.00 148.00 L 339.00 153.00 L 339.00 152.00 L 337.00 149.00 L 333.00 144.00 L 318.00 129.00 L 314.00 126.00 L 309.00 123.00 L 307.00 122.00 L 304.00 121.00 L 301.00 120.00 Z M 307.00 348.00 L 310.00 349.00 L 310.00 367.00 L 311.00 376.00 L 312.00 382.00 L 313.00 388.00 L 316.00 400.00 L 320.00 412.00 L 322.00 417.00 L 324.00 422.00 L 326.00 426.00 L 331.00 434.00 L 332.00 436.00 L 330.00 438.00 L 330.00 439.00 L 327.00 443.00 L 324.00 447.00 L 320.00 452.00 L 307.00 465.00 Z M 290.00 348.00 L 294.00 349.00 L 293.00 464.00 L 291.00 463.00 L 287.00 460.00 L 275.00 448.00 L 271.00 443.00 L 269.00 440.00 L 268.00 438.00 L 268.00 436.00 L 271.00 431.00 L 276.00 421.00 L 278.00 416.00 L 280.00 410.00 L 283.00 401.00 L 284.00 397.00 L 285.00 393.00 L 286.00 388.00 L 287.00 383.00 L 288.00 377.00 L 289.00 368.00 Z M 277.00 347.00 L 278.00 363.00 L 277.00 373.00 L 276.00 380.00 L 275.00 385.00 L 274.00 390.00 L 273.00 394.00 L 272.00 398.00 L 268.00 410.00 L 266.00 415.00 L 263.00 422.00 L 260.00 428.00 L 258.00 431.00 L 255.00 434.00 L 252.00 436.00 L 244.00 440.00 L 235.00 443.00 L 230.00 444.00 L 223.00 444.00 L 219.00 443.00 L 217.00 442.00 L 217.00 439.00 L 221.00 438.00 L 224.00 436.00 L 227.00 434.00 L 231.00 431.00 L 239.00 423.00 L 243.00 418.00 L 246.00 414.00 L 248.00 411.00 L 250.00 408.00 L 253.00 403.00 L 257.00 396.00 L 261.00 388.00 L 265.00 379.00 L 271.00 364.00 L 275.00 350.00 L 276.00 349.00 Z M 323.00 343.00 L 324.00 348.00 L 328.00 364.00 L 330.00 370.00 L 333.00 379.00 L 335.00 384.00 L 337.00 389.00 L 340.00 395.00 L 345.00 405.00 L 351.00 414.00 L 354.00 418.00 L 359.00 424.00 L 362.00 427.00 L 369.00 433.00 L 372.00 435.00 L 375.00 436.00 L 378.00 438.00 L 380.00 440.00 L 378.00 441.00 L 377.00 442.00 L 373.00 443.00 L 361.00 443.00 L 357.00 442.00 L 351.00 439.00 L 348.00 437.00 L 342.00 431.00 L 340.00 428.00 L 334.00 416.00 L 331.00 409.00 L 327.00 397.00 L 326.00 393.00 L 325.00 389.00 L 324.00 384.00 L 323.00 379.00 L 322.00 373.00 L 321.00 362.00 L 321.00 345.00 Z M 347.00 321.00 L 361.00 320.00 L 373.00 321.00 L 380.00 322.00 L 385.00 323.00 L 390.00 324.00 L 394.00 325.00 L 398.00 326.00 L 404.00 328.00 L 413.00 331.00 L 420.00 334.00 L 424.00 336.00 L 430.00 339.00 L 432.00 341.00 L 433.00 341.00 L 434.00 342.00 L 434.00 343.00 L 436.00 345.00 L 440.00 353.00 L 442.00 358.00 L 443.00 361.00 L 444.00 365.00 L 444.00 378.00 L 440.00 381.00 L 439.00 379.00 L 438.00 376.00 L 436.00 373.00 L 434.00 370.00 L 420.00 356.00 L 416.00 353.00 L 407.00 347.00 L 402.00 344.00 L 384.00 335.00 L 377.00 332.00 L 372.00 330.00 L 364.00 327.00 L 350.00 323.00 L 349.00 322.00 Z M 238.00 320.00 L 252.00 321.00 L 250.00 322.00 L 249.00 323.00 L 244.00 324.00 L 232.00 328.00 L 227.00 330.00 L 222.00 332.00 L 215.00 335.00 L 209.00 338.00 L 199.00 343.00 L 192.00 347.00 L 183.00 353.00 L 178.00 357.00 L 165.00 370.00 L 163.00 373.00 L 161.00 376.00 L 160.00 378.00 L 158.00 383.00 L 156.00 381.00 L 155.00 378.00 L 155.00 365.00 L 156.00 361.00 L 157.00 358.00 L 159.00 353.00 L 163.00 345.00 L 165.00 343.00 L 165.00 342.00 L 166.00 341.00 L 167.00 341.00 L 169.00 339.00 L 173.00 337.00 L 179.00 334.00 L 186.00 331.00 L 192.00 329.00 L 201.00 326.00 L 205.00 325.00 L 209.00 324.00 L 214.00 323.00 L 219.00 322.00 L 226.00 321.00 Z M 350.00 304.00 L 465.00 305.00 L 463.00 307.00 L 463.00 308.00 L 460.00 312.00 L 450.00 322.00 L 445.00 326.00 L 442.00 328.00 L 439.00 330.00 L 436.00 330.00 L 428.00 325.00 L 421.00 322.00 L 416.00 320.00 L 410.00 318.00 L 401.00 315.00 L 397.00 314.00 L 393.00 313.00 L 388.00 312.00 L 383.00 311.00 L 376.00 310.00 L 366.00 309.00 L 348.00 308.00 Z M 134.00 305.00 L 250.00 305.00 L 251.00 308.00 L 233.00 309.00 L 223.00 310.00 L 216.00 311.00 L 211.00 312.00 L 206.00 313.00 L 202.00 314.00 L 198.00 315.00 L 192.00 317.00 L 183.00 320.00 L 178.00 322.00 L 171.00 325.00 L 169.00 326.00 L 165.00 329.00 L 163.00 330.00 L 160.00 330.00 L 157.00 328.00 L 154.00 326.00 L 149.00 322.00 L 140.00 313.00 L 136.00 308.00 L 136.00 307.00 Z M 435.00 267.00 L 438.00 267.00 L 442.00 270.00 L 450.00 276.00 L 459.00 284.00 L 462.00 287.00 L 464.00 293.00 L 349.00 292.00 L 350.00 288.00 L 369.00 288.00 L 378.00 287.00 L 384.00 286.00 L 389.00 285.00 L 401.00 282.00 L 413.00 278.00 L 418.00 276.00 L 423.00 274.00 L 427.00 272.00 L 433.00 268.00 Z M 161.00 267.00 L 164.00 267.00 L 166.00 268.00 L 170.00 271.00 L 174.00 273.00 L 181.00 276.00 L 186.00 278.00 L 198.00 282.00 L 210.00 285.00 L 215.00 286.00 L 221.00 287.00 L 230.00 288.00 L 250.00 289.00 L 249.00 293.00 L 134.00 291.00 L 138.00 286.00 L 140.00 284.00 L 149.00 276.00 L 154.00 272.00 L 157.00 270.00 Z M 298.00 261.00 L 300.00 261.00 L 307.00 262.00 L 311.00 263.00 L 316.00 265.00 L 321.00 268.00 L 330.00 277.00 L 332.00 280.00 L 333.00 282.00 L 334.00 284.00 L 335.00 287.00 L 336.00 290.00 L 337.00 295.00 L 337.00 303.00 L 336.00 308.00 L 335.00 312.00 L 332.00 318.00 L 330.00 321.00 L 321.00 330.00 L 318.00 332.00 L 312.00 335.00 L 308.00 336.00 L 303.00 337.00 L 295.00 337.00 L 290.00 336.00 L 287.00 335.00 L 284.00 334.00 L 282.00 333.00 L 280.00 332.00 L 277.00 330.00 L 268.00 321.00 L 266.00 318.00 L 265.00 316.00 L 264.00 314.00 L 263.00 311.00 L 262.00 308.00 L 261.00 303.00 L 261.00 295.00 L 262.00 290.00 L 263.00 287.00 L 264.00 284.00 L 265.00 282.00 L 267.00 279.00 L 269.00 276.00 L 276.00 269.00 L 279.00 267.00 L 287.00 263.00 L 291.00 262.00 Z M 439.00 219.00 L 442.00 219.00 L 443.00 222.00 L 444.00 227.00 L 444.00 235.00 L 443.00 239.00 L 442.00 242.00 L 439.00 248.00 L 437.00 251.00 L 432.00 256.00 L 429.00 258.00 L 415.00 265.00 L 410.00 267.00 L 398.00 271.00 L 386.00 274.00 L 381.00 275.00 L 375.00 276.00 L 365.00 277.00 L 345.00 274.00 L 349.00 274.00 L 365.00 270.00 L 371.00 268.00 L 380.00 265.00 L 385.00 263.00 L 390.00 261.00 L 404.00 254.00 L 409.00 251.00 L 412.00 249.00 L 415.00 247.00 L 419.00 244.00 L 432.00 231.00 L 435.00 227.00 L 437.00 224.00 L 438.00 221.00 Z M 160.00 219.00 L 161.00 221.00 L 162.00 224.00 L 164.00 227.00 L 167.00 231.00 L 180.00 244.00 L 184.00 247.00 L 187.00 249.00 L 190.00 251.00 L 195.00 254.00 L 209.00 261.00 L 214.00 263.00 L 219.00 265.00 L 225.00 267.00 L 234.00 270.00 L 250.00 274.00 L 254.00 277.00 L 234.00 277.00 L 224.00 276.00 L 218.00 275.00 L 213.00 274.00 L 201.00 271.00 L 189.00 267.00 L 184.00 265.00 L 170.00 258.00 L 167.00 256.00 L 162.00 251.00 L 160.00 248.00 L 156.00 240.00 L 155.00 236.00 L 155.00 227.00 L 156.00 222.00 Z M 226.00 156.00 L 238.00 156.00 L 242.00 157.00 L 248.00 160.00 L 251.00 162.00 L 258.00 169.00 L 260.00 173.00 L 266.00 185.00 L 268.00 190.00 L 272.00 202.00 L 275.00 214.00 L 276.00 219.00 L 277.00 226.00 L 278.00 236.00 L 275.00 254.00 L 274.00 250.00 L 271.00 235.00 L 265.00 217.00 L 262.00 210.00 L 259.00 204.00 L 254.00 194.00 L 246.00 182.00 L 241.00 176.00 L 235.00 170.00 L 230.00 166.00 L 227.00 164.00 L 221.00 161.00 L 219.00 159.00 L 221.00 158.00 L 222.00 157.00 Z M 369.00 155.00 L 376.00 155.00 L 380.00 156.00 L 382.00 157.00 L 382.00 160.00 L 380.00 160.00 L 375.00 163.00 L 372.00 165.00 L 367.00 169.00 L 362.00 174.00 L 362.00 175.00 L 356.00 181.00 L 353.00 185.00 L 351.00 188.00 L 349.00 191.00 L 346.00 196.00 L 340.00 207.00 L 340.00 209.00 L 338.00 211.00 L 334.00 220.00 L 332.00 225.00 L 330.00 230.00 L 327.00 238.00 L 324.00 249.00 L 323.00 250.00 L 322.00 252.00 L 321.00 237.00 L 322.00 226.00 L 323.00 219.00 L 324.00 214.00 L 325.00 209.00 L 326.00 205.00 L 328.00 198.00 L 331.00 189.00 L 333.00 184.00 L 336.00 177.00 L 337.00 175.00 L 338.00 173.00 L 341.00 168.00 L 344.00 165.00 L 347.00 163.00 L 355.00 159.00 L 364.00 156.00 Z M 306.00 135.00 L 308.00 136.00 L 312.00 139.00 L 324.00 151.00 L 328.00 156.00 L 330.00 159.00 L 331.00 161.00 L 331.00 163.00 L 328.00 168.00 L 323.00 178.00 L 321.00 183.00 L 319.00 189.00 L 316.00 198.00 L 315.00 202.00 L 314.00 206.00 L 313.00 211.00 L 312.00 216.00 L 311.00 223.00 L 310.00 232.00 L 309.00 251.00 L 307.00 251.00 L 305.00 249.00 Z M 292.00 134.00 L 292.00 251.00 L 289.00 250.00 L 289.00 231.00 L 288.00 222.00 L 287.00 216.00 L 286.00 211.00 L 283.00 199.00 L 281.00 193.00 L 278.00 184.00 L 275.00 177.00 L 273.00 173.00 L 268.00 165.00 L 268.00 162.00 L 269.00 160.00 L 272.00 156.00 L 275.00 152.00 L 279.00 147.00 Z" fill="#000000" fill-rule="evenodd"/>
</svg>